<?xml version="1.0" standalone="no"?>
<!DOCTYPE svg PUBLIC "-//W3C//DTD SVG 20010904//EN"
 "http://www.w3.org/TR/2001/REC-SVG-20010904/DTD/svg10.dtd">
<svg version="1.0" xmlns="http://www.w3.org/2000/svg"
 width="300.000000pt" height="300.000000pt" viewBox="0 0 300.000000 300.000000"
 preserveAspectRatio="xMidYMid meet">
<metadata>
Created by potrace 1.14, written by Peter Selinger 2001-2017
</metadata>
<g transform="translate(0.000000,300.000000) scale(0.100000,-0.100000)"
fill="#000000" stroke="none">
<path d="M1111 2179 c-55 -12 -80 -30 -101 -74 -40 -82 -17 -196 46 -236 25
-15 51 -21 94 -21 109 0 160 54 160 167 0 72 -23 122 -65 146 -38 21 -90 28
-134 18z m88 -78 c41 -41 35 -157 -9 -181 -60 -32 -110 11 -110 95 0 38 6 60
21 79 25 32 70 35 98 7z"/>
<path d="M465 2015 l0 -165 40 0 40 0 0 62 0 63 53 3 c50 3 52 4 52 33 0 29
-1 29 -56 29 l-55 0 3 38 3 37 55 5 c52 5 55 7 55 33 l1 27 -96 0 -95 0 0
-165z"/>
<path d="M720 2015 l0 -165 110 0 110 0 0 30 c0 29 0 29 -67 32 l-68 3 0 133
0 132 -42 0 -43 0 0 -165z"/>
<path d="M1385 2015 l0 -165 43 0 42 0 0 55 c0 52 1 55 25 55 38 0 90 25 109
51 18 27 21 91 5 121 -16 31 -71 48 -151 48 l-73 0 0 -165z m136 95 c21 -12
25 -50 7 -68 -7 -7 -22 -12 -35 -12 -21 0 -23 5 -23 45 0 48 11 56 51 35z"/>
<path d="M1690 2016 l0 -166 40 0 40 0 0 54 0 53 48 7 c61 8 89 28 101 72 13
48 4 87 -25 115 -21 19 -38 24 -114 27 l-90 4 0 -166z m138 92 c29 -29 7 -78
-35 -78 -21 0 -23 5 -23 45 0 40 2 45 23 45 13 0 28 -5 35 -12z"/>
<path d="M2014 2076 c50 -94 56 -110 56 -165 l0 -61 40 0 40 0 0 65 c0 58 5
74 46 150 25 47 42 90 38 96 -4 7 -3 9 4 5 6 -3 13 -2 17 4 4 6 -11 10 -40 10
l-46 0 -26 -60 c-14 -33 -29 -60 -34 -60 -4 0 -20 27 -35 60 l-27 60 -44 0
-45 0 56 -104z"/>
<path d="M2450 1890 c0 -5 5 -10 10 -10 6 0 10 5 10 10 0 6 -4 10 -10 10 -5 0
-10 -4 -10 -10z"/>
<path d="M2546 1880 c3 -14 3 -22 -1 -18 -10 9 -82 -58 -88 -83 -3 -10 -1 -19
4 -19 25 0 -63 -107 -100 -121 -13 -5 -21 -12 -18 -15 3 -3 14 -1 25 5 26 14
55 14 47 1 -9 -14 8 -12 24 3 11 10 13 10 7 0 -4 -7 -3 -13 1 -13 11 0 98 177
107 217 5 19 3 40 -4 50 -9 15 -10 14 -4 -7z m-36 -125 c0 -15 -38 -40 -47
-31 -3 3 5 14 18 25 29 25 29 25 29 6z"/>
<path d="M2495 1874 c-11 -8 -26 -12 -33 -9 -10 4 -12 0 -8 -11 4 -10 -1 -22
-11 -30 -13 -10 -14 -13 -4 -14 11 0 11 -3 0 -17 -7 -10 -1 -6 14 9 15 15 27
30 27 34 0 4 11 17 26 30 28 26 20 32 -11 8z"/>
<path d="M2350 1679 c0 -6 -11 -20 -24 -30 -14 -11 -23 -29 -23 -44 0 -21 3
-25 21 -19 11 4 28 10 36 15 13 7 12 8 -2 9 -30 0 -31 21 -2 51 22 23 24 29
11 29 -9 0 -17 -5 -17 -11z"/>
<path d="M2379 1583 c-13 -16 -12 -17 4 -4 9 7 17 15 17 17 0 8 -8 3 -21 -13z"/>
<path d="M2230 1516 c0 -8 5 -18 10 -21 6 -3 10 1 10 9 0 8 -4 18 -10 21 -5 3
-10 -1 -10 -9z"/>
<path d="M800 1345 l0 -165 90 0 c108 0 143 14 159 63 14 42 0 87 -29 94 -25
7 -25 7 5 37 45 45 24 107 -43 126 -20 5 -70 10 -109 10 l-73 0 0 -165z m154
89 c25 -25 4 -54 -39 -54 -33 0 -35 2 -35 35 0 32 2 35 29 35 16 0 37 -7 45
-16z m6 -128 c6 -8 10 -25 8 -38 -2 -19 -10 -23 -45 -26 l-43 -3 0 40 c0 40 1
41 34 41 18 0 39 -7 46 -14z"/>
<path d="M1130 1345 l0 -165 40 0 40 0 0 165 0 165 -40 0 -40 0 0 -165z"/>
<path d="M1290 1346 l0 -166 43 0 42 0 -3 60 c-3 54 -2 60 16 60 13 0 31 -18
54 -57 33 -56 35 -58 81 -61 l48 -3 -46 69 -46 70 26 26 c22 22 26 34 23 73
-4 68 -33 86 -148 91 l-90 4 0 -166z m148 92 c7 -7 12 -22 12 -34 0 -51 -72
-61 -78 -11 -2 16 -1 35 2 43 7 17 48 18 64 2z"/>
<path d="M1620 1346 l0 -166 83 0 c103 0 142 18 175 81 19 36 23 55 19 102 -9
105 -52 138 -189 145 l-88 4 0 -166z m167 82 c22 -18 34 -80 22 -121 -11 -42
-41 -67 -81 -67 l-28 0 0 98 c0 54 3 102 7 106 9 8 63 -3 80 -16z"/>
<path d="M2205 1440 c-33 -22 -29 -26 10 -8 14 6 25 15 25 20 0 11 -1 11 -35
-12z"/>
<path d="M2156 1385 c-9 -14 -23 -25 -31 -25 -8 0 -15 -4 -15 -9 0 -4 -17 -28
-39 -52 -37 -43 -74 -104 -75 -124 -2 -22 -33 -53 -51 -52 -15 2 -19 -4 -18
-20 2 -13 -1 -23 -6 -23 -5 0 -11 -10 -14 -21 -6 -21 -7 -21 -32 7 -20 22 -24
24 -16 7 18 -35 14 -63 -6 -56 -14 5 -12 0 6 -20 23 -25 23 -28 7 -46 -16 -18
-15 -19 14 -25 31 -6 31 -6 25 -53 -4 -27 -9 -57 -12 -68 -10 -37 13 -2 31 48
14 37 26 52 52 64 18 9 31 20 28 24 -7 12 26 27 47 22 10 -3 30 4 45 16 15 12
22 21 17 21 -5 0 -13 -3 -17 -7 -3 -4 -15 -8 -26 -10 -15 -2 -19 4 -20 35 0
20 -1 46 -3 57 -1 11 3 22 8 23 16 6 35 24 35 34 0 5 -4 6 -10 3 -15 -9 -12
11 3 27 8 7 12 18 10 25 -2 6 4 17 15 25 27 19 37 64 16 76 -14 8 -13 14 11
52 19 30 29 39 35 30 5 -8 8 -4 7 13 -1 15 -3 27 -3 27 -1 0 -9 -11 -18 -25z
m-106 -189 c0 -2 -8 -10 -17 -17 -16 -13 -17 -12 -4 4 13 16 21 21 21 13z
m-54 -122 c-4 -9 -9 -15 -11 -12 -3 3 -3 13 1 22 4 9 9 15 11 12 3 -3 3 -13
-1 -22z m-25 -47 c-10 -9 -11 -8 -5 6 3 10 9 15 12 12 3 -3 0 -11 -7 -18z"/>
</g>
</svg>
